<svg width="19" height="18" viewBox="0 0 19 18" fill="none" xmlns="http://www.w3.org/2000/svg">
<path d="M16.6821 6.1362C16.5777 6.2172 14.735 7.2558 14.735 9.5652C14.735 12.2364 17.0798 13.1814 17.15 13.2048C17.1392 13.2624 16.7775 14.499 15.9137 15.759C15.1435 16.8678 14.3391 17.9748 13.1154 17.9748C11.8918 17.9748 11.5768 17.2638 10.1642 17.2638C8.78757 17.2638 8.2981 17.9982 7.17879 17.9982C6.05948 17.9982 5.27848 16.9722 4.38051 15.7122C3.34038 14.2326 2.5 11.934 2.5 9.7524C2.5 6.2532 4.77461 4.3974 7.01323 4.3974C8.20272 4.3974 9.19426 5.1786 9.94107 5.1786C10.6519 5.1786 11.7604 4.3506 13.1136 4.3506C13.6265 4.3506 15.4692 4.3974 16.6821 6.1362ZM12.4712 2.8692C13.0309 2.205 13.4268 1.2834 13.4268 0.3618C13.4268 0.234 13.416 0.1044 13.3926 0C12.482 0.0342 11.3987 0.6066 10.7455 1.3644C10.2326 1.9476 9.75392 2.8692 9.75392 3.8034C9.75392 3.9438 9.77731 4.0842 9.78811 4.1292C9.84569 4.14 9.93927 4.1526 10.0328 4.1526C10.8498 4.1526 11.8774 3.6054 12.4712 2.8692Z" fill="black"/>
</svg>
