<svg width="16" height="19" viewBox="0 0 16 19" fill="none" xmlns="http://www.w3.org/2000/svg">
<path d="M8.00002 5.45C7.78335 5.17917 7.50349 4.96719 7.16044 4.81408C6.81738 4.66097 6.44724 4.58406 6.05002 4.58333C5.40002 4.58333 4.8403 4.81806 4.37085 5.2875C3.90141 5.75694 3.66669 6.31667 3.66669 6.96667C3.66669 7.30972 3.71616 7.62569 3.8151 7.91458C3.91405 8.20347 4.11735 8.54653 4.42502 8.94375C4.6778 9.26875 5.02988 9.65694 5.48127 10.1083C5.93266 10.5597 6.51044 11.1104 7.2146 11.7604C7.32294 11.8687 7.44463 11.95 7.57969 12.0042C7.71474 12.0583 7.85485 12.0854 8.00002 12.0854C8.14519 12.0854 8.28494 12.0583 8.41927 12.0042C8.5536 11.95 8.67566 11.8687 8.78544 11.7604C9.47155 11.1285 10.0403 10.5915 10.4917 10.1495C10.9431 9.7075 11.2952 9.31461 11.5479 8.97083C11.8549 8.57361 12.0625 8.22586 12.1709 7.92758C12.2792 7.6293 12.3334 7.309 12.3334 6.96667C12.3334 6.31667 12.0986 5.75694 11.6292 5.2875C11.1597 4.81806 10.6 4.58333 9.95002 4.58333C9.57085 4.58333 9.20505 4.65989 8.8526 4.813C8.50016 4.96611 8.21597 5.17844 8.00002 5.45ZM8.00002 16.5L3.45002 18.45C2.7278 18.7569 2.04169 18.6984 1.39169 18.2745C0.741687 17.8506 0.416687 17.25 0.416687 16.4729V2.41667C0.416687 1.82083 0.62902 1.31094 1.05369 0.887C1.47835 0.463056 1.98824 0.250722 2.58335 0.25H13.4167C14.0125 0.25 14.5228 0.462333 14.9474 0.887C15.3721 1.31167 15.5841 1.82156 15.5834 2.41667V16.4729C15.5834 17.2493 15.2584 17.8498 14.6084 18.2745C13.9584 18.6992 13.2722 18.7577 12.55 18.45L8.00002 16.5Z" fill="#87A7F8"/>
</svg>
