<svg width="16" height="19" viewBox="0 0 16 19" fill="none" xmlns="http://www.w3.org/2000/svg">
<path d="M6.91669 11.3542V8.91667H10.7084C10.925 8.91667 11.0875 8.81736 11.1959 8.61875C11.3042 8.42014 11.2861 8.23055 11.1417 8.05L10.1667 6.75L11.1417 5.45C11.2861 5.26944 11.3042 5.07986 11.1959 4.88125C11.0875 4.68264 10.925 4.58333 10.7084 4.58333H6.37502C6.06808 4.58333 5.81097 4.68733 5.60369 4.89533C5.39641 5.10333 5.29241 5.36044 5.29169 5.66667V11.3542C5.29169 11.5889 5.3686 11.7832 5.52244 11.937C5.67627 12.0908 5.87019 12.1674 6.10419 12.1667C6.33819 12.1659 6.53246 12.089 6.68702 11.9359C6.84158 11.7828 6.91813 11.5889 6.91669 11.3542ZM8.00002 16.5L3.45002 18.45C2.7278 18.7569 2.04169 18.6984 1.39169 18.2745C0.741687 17.8506 0.416687 17.25 0.416687 16.4729V2.41667C0.416687 1.82083 0.62902 1.31094 1.05369 0.887C1.47835 0.463056 1.98824 0.250722 2.58335 0.25H13.4167C14.0125 0.25 14.5228 0.462333 14.9474 0.887C15.3721 1.31167 15.5841 1.82156 15.5834 2.41667V16.4729C15.5834 17.2493 15.2584 17.8498 14.6084 18.2745C13.9584 18.6992 13.2722 18.7577 12.55 18.45L8.00002 16.5Z" fill="#87A7F8"/>
</svg>
