<svg width="21" height="27" viewBox="0 0 21 27" fill="none" xmlns="http://www.w3.org/2000/svg">
<path d="M14.438 5.85431C15.2385 5.85431 16.0062 5.54592 16.5723 4.99697C17.1384 4.44802 17.4564 3.70349 17.4564 2.92716C17.4564 2.15083 17.1384 1.40629 16.5723 0.857344C16.0062 0.308396 15.2385 0 14.438 0C13.6374 0 12.8697 0.308396 12.3036 0.857344C11.7376 1.40629 11.4196 2.15083 11.4196 2.92716C11.4196 3.70349 11.7376 4.44802 12.3036 4.99697C12.8697 5.54592 13.6374 5.85431 14.438 5.85431ZM8.37431 8.63967C7.53788 8.84131 6.96707 9.14444 6.50626 9.52042C5.81538 10.085 5.25731 10.8994 4.50338 12.1796C4.32682 12.4792 4.03477 12.6984 3.69148 12.7892C3.3482 12.88 2.9818 12.8348 2.67288 12.6635C2.36397 12.4923 2.13784 12.2091 2.04425 11.8762C1.95066 11.5433 1.99728 11.188 2.17384 10.8884C2.92442 9.61539 3.68304 8.42436 4.77839 7.5306C5.92136 6.59651 7.32056 6.06832 9.2074 5.86472C9.9962 5.78016 10.8642 5.79707 11.6778 6.14898C12.5317 6.5191 13.1555 7.18194 13.5807 8.06789C14.1536 9.26022 14.5795 9.9699 14.9202 10.3816C15.0846 10.5787 15.1993 10.6705 15.2643 10.7114C15.316 10.744 15.3381 10.7466 15.3462 10.7479C15.4045 10.7544 15.5943 10.7479 16.1497 10.5091C16.3919 10.4051 16.6561 10.2802 16.9795 10.1273L17.0566 10.0909C17.452 9.9017 17.8509 9.71954 18.2532 9.54448C18.578 9.40621 18.946 9.39831 19.2768 9.5225C19.6076 9.64669 19.8742 9.89287 20.0183 10.2072C20.1624 10.5215 20.1723 10.8784 20.0458 11.1997C19.9192 11.5211 19.6666 11.7808 19.3432 11.922C18.9704 12.0842 18.6007 12.2531 18.2344 12.4287L18.1466 12.4703C17.8374 12.6167 17.5261 12.7644 17.2343 12.8892C16.6307 13.1481 15.8593 13.4291 15.0229 13.3309C14.1401 13.2268 13.46 12.7435 12.8999 12.095L11.0667 15.525L13.6022 18.724C13.7534 18.915 13.8469 19.1429 13.8725 19.3823L14.4306 24.5836C14.4518 24.7549 14.4377 24.9287 14.3891 25.0947C14.3404 25.2607 14.2581 25.4157 14.1471 25.5506C14.0361 25.6855 13.8985 25.7976 13.7423 25.8804C13.5862 25.9632 13.4146 26.0151 13.2375 26.0329C13.0605 26.0508 12.8816 26.0343 12.7112 25.9845C12.5408 25.9346 12.3823 25.8524 12.245 25.7426C12.1077 25.6327 11.9943 25.4975 11.9115 25.3448C11.8286 25.192 11.7779 25.0248 11.7623 24.8529L11.2431 20.0178L9.70308 18.0742L9.68967 18.0983L9.63333 17.9864L6.78797 14.3958C6.6481 14.2193 6.55726 14.0109 6.52415 13.7907C6.49103 13.5704 6.51674 13.3456 6.59882 13.1377L8.37431 8.63967Z" fill="#87A7F8"/>
<path d="M6.3433 16.2665L5.35595 18.8424L1.46556 18.5432C1.28868 18.5272 1.1103 18.5455 0.940775 18.597C0.771247 18.6484 0.613947 18.732 0.478002 18.8429C0.342057 18.9538 0.230174 19.0898 0.148848 19.2429C0.0675215 19.3961 0.0183704 19.5634 0.0042469 19.7351C-0.00987655 19.9068 0.0113088 20.0796 0.0665738 20.2433C0.121839 20.407 0.210083 20.5584 0.326184 20.6888C0.442286 20.8192 0.583934 20.9259 0.742907 21.0028C0.90188 21.0797 1.07501 21.1252 1.25226 21.1366L6.15415 21.5139C6.44507 21.5363 6.7356 21.4662 6.98169 21.314C7.22777 21.1619 7.41599 20.9361 7.5178 20.6709L8.2724 18.7012L6.3433 16.2665Z" fill="#87A7F8"/>
</svg>
